<?xml version="1.0" encoding="UTF-8"?>
<svg id="Capa_2" data-name="Capa 2" xmlns="http://www.w3.org/2000/svg" viewBox="0 0 243.6 154.38">
  <g id="Capa_1-2" data-name="Capa 1">
    <path d="M235.19,4.76C229.59,1.92,222.6.34,214.23.03c-6.43-.15-13.2.26-20.31,1.23-7.1.98-14.09,2.51-20.96,4.61-7.33-1.79-14.81-3.21-22.44-4.25C142.9.57,134.97.03,126.75.03c-16,0-30.92,1.87-44.75,5.61-13.83,3.74-26.81,9.64-38.92,17.73-7.93,5.37-15.18,11.91-21.77,19.62-6.57,7.7-11.76,16.11-15.58,25.23-3.82,9.13-5.73,18.4-5.73,27.81,0,13.17,3.21,23.27,9.65,30.3,6.42,7.03,15.4,10.54,26.91,10.54,1.21,0,2.45-.08,3.71-.23,1.28-.15,2.44-.45,3.48-.9,1.64,6.43,5.26,11.18,10.88,14.25,5.6,3.07,12.08,4.53,19.41,4.38,8.67-.31,17.03-2.08,25.11-5.29,8.08-3.21,15.78-7.14,23.1-11.77,5.23-3.14,10.43-6.77,15.58-10.88,2.93-2.33,5.85-4.67,8.76-7.03,1.5-1.22,3-2.44,4.5-3.67,1.63-1.34,3.01-2.9,4.56-4.32.97-.89,1.95-1.76,2.92-2.65,4.8-4.42,9.21-8.49,13.25-12.23,2.99-3,5.9-5.92,8.73-8.75s5.47-5.62,7.86-8.31c.75.9,2.09,1.87,4.04,2.91,1.65.75,2.84,1.28,3.58,1.59.75.29,1.2.89,1.36,1.79.15.75-.86,2.21-3.02,4.37-2.17,2.17-4.79,4.64-7.86,7.4-3.07,2.76-6.02,5.41-8.85,7.96-7.03,6.14-12.61,11.9-16.73,17.29-4.12,5.37-6.17,10.38-6.17,15.02,0,5.37,2.62,8.06,7.86,8.06,2.54,0,5.45-.85,8.75-2.56,3.29-1.72,6.8-3.86,10.54-6.4,4.19-3,8.49-6.32,12.89-9.98,4.42-3.66,8.35-7,11.79-10,.6-.44,1.2-1,1.8-1.66.59-.68.59-1.32,0-1.92-.46-.44-.99-.51-1.59-.21-.6.29-1.12.66-1.56,1.11-2.99,2.39-6.72,5.49-11.21,9.31s-8.67,7.14-12.56,9.98c-2.41,1.65-5.44,3.56-9.1,5.73-3.66,2.16-6.54,3.25-8.63,3.25-1.79,0-2.69-.75-2.69-2.25,0-1.64,1.2-3.88,3.59-6.73,2.09-2.54,4.71-5.3,7.85-8.29,3.14-3,6.8-6.44,11-10.32,2.54-2.4,5.38-5.2,8.52-8.41,3.14-3.22,5.82-6.51,8.06-9.88,2.25-3.36,3.38-6.54,3.38-9.54,0-2.83-2.1-4.92-6.29-6.27-.74-.3-1.86-.79-3.36-1.46s-2.25-1.3-2.25-1.92c0-1.19,1.05-2.53,3.15-4.02,2.09-1.5,4.34-3,6.73-4.5,1.04-.59,2.68-1.52,4.91-2.79,2.25-1.27,4.32-2.59,6.19-3.94,1.88-1.34,2.81-2.24,2.81-2.68,0-.6-1.12-.9-3.37-.9-1.04,0-2.13.08-3.25.23-1.13.16-1.91.3-2.35.44-1.2.15-2.7.64-4.5,1.48-1.8.82-3.73,1.97-5.82,3.46-2.54,1.94-4.64,4.04-6.29,6.29-1.64,2.24-2.46,4.18-2.46,5.83-2.4,2.83-5.03,5.71-7.87,8.63-2.84,2.91-6.12,6.09-9.86,9.54-3.89,3.74-8.07,7.62-12.56,11.66-4.16,3.73-7.92,7.09-11.3,10.05-3.19,2.64-6.48,5.23-9.87,7.75-4.7,3.52-9.68,7-14.91,10.44-6.88,4.49-14.47,8.25-22.77,11.31-8.31,3.07-16.2,4.76-23.67,5.06-7.47.14-12.97-1.4-16.48-4.62-3.52-3.21-5.27-7.43-5.27-12.67,0-4.92,1.46-10.67,4.37-17.25,2.92-6.58,6.95-13.5,12.11-20.75,5.17-7.26,11.14-14.59,17.94-22,6.8-7.4,14.02-14.38,21.64-20.96,10.78-9.27,21.88-17.42,33.31-24.45,11.45-7.03,22.63-12.64,33.55-16.84,5.23.75,10.13,1.73,14.68,2.94,4.57,1.2,8.87,2.24,12.9,3.13,4.79,1.05,10.21,2.26,16.27,3.6,6.05,1.33,11.4,2,16.04,2,2.24,0,4.14-.63,5.71-1.9,1.57-1.27,2.35-2.88,2.35-4.83,0-4.78-2.8-8.58-8.41-11.42ZM126.29,27.51c-12.71,7.25-24.6,15.6-35.66,25.02-5.98,5.09-11.88,10.88-17.71,17.38-5.84,6.5-11.04,13.34-15.61,20.52-4.55,7.18-8.1,14.4-10.64,21.65-2.54,7.25-3.6,14.24-3.15,20.98-1.04.29-2.16.51-3.35.66-1.2.16-2.33.23-3.38.23-10.01,0-18.01-3.17-24-9.52-5.97-6.36-8.96-15.97-8.96-28.83,0-8.38,1.83-16.68,5.48-24.9,3.67-8.22,8.75-16,15.25-23.33,6.51-7.34,14.03-13.69,22.57-19.06,12.4-7.93,25.06-13.36,38-16.28,12.94-2.91,26.81-4.37,41.62-4.37,13.61,0,26.02.68,37.23,2.02-12.42,4.64-24.98,10.58-37.69,17.83ZM235.08,20.45c-4.49,0-9.57-.74-15.25-2.23-5.68-1.5-10.91-2.85-15.7-4.06-3.15-.89-6.66-1.9-10.55-3.02-3.89-1.13-7.7-2.13-11.43-3.02,5.54-1.95,11.11-3.29,16.7-4.04,5.61-.75,10.74-1.13,15.38-1.13,7.33,0,13.65,1.13,18.96,3.38,5.3,2.24,7.96,5.52,7.96,9.85,0,2.85-2.02,4.27-6.07,4.27Z"/>
  </g>
</svg>