<?xml version="1.0" encoding="UTF-8"?>
<svg id="Capa_2" data-name="Capa 2" xmlns="http://www.w3.org/2000/svg" viewBox="0 0 403.71 154.38">
  <g id="Capa_1-2" data-name="Capa 1">
    <path d="M235.19,4.76C229.59,1.92,222.6.34,214.23.03c-6.43-.15-13.2.26-20.31,1.23-7.1.98-14.09,2.51-20.96,4.61-7.33-1.79-14.81-3.21-22.44-4.25C142.9.57,134.97.03,126.75.03c-16,0-30.92,1.87-44.75,5.61-13.83,3.74-26.81,9.64-38.92,17.73-7.93,5.37-15.18,11.91-21.77,19.62-6.57,7.7-11.76,16.11-15.58,25.23-3.82,9.13-5.73,18.4-5.73,27.81,0,13.17,3.21,23.27,9.65,30.3,6.42,7.03,15.4,10.54,26.91,10.54,1.21,0,2.45-.08,3.71-.23,1.28-.15,2.44-.45,3.48-.9,1.64,6.43,5.26,11.18,10.88,14.25,5.6,3.07,12.08,4.53,19.41,4.38,8.67-.31,17.03-2.08,25.11-5.29,8.08-3.21,15.78-7.14,23.1-11.77,5.23-3.14,10.43-6.77,15.58-10.88,2.93-2.33,5.85-4.67,8.76-7.03,1.5-1.22,3-2.44,4.5-3.67,1.63-1.34,3.01-2.9,4.56-4.32.97-.89,1.95-1.76,2.92-2.65,4.8-4.42,9.21-8.49,13.25-12.23,2.99-3,5.9-5.92,8.73-8.75s5.47-5.62,7.86-8.31c.75.9,2.09,1.87,4.04,2.91,1.65.75,2.84,1.28,3.58,1.59.75.29,1.2.89,1.36,1.79.15.75-.86,2.21-3.02,4.37-2.17,2.17-4.79,4.64-7.86,7.4-3.07,2.76-6.02,5.41-8.85,7.96-7.03,6.14-12.61,11.9-16.73,17.29-4.12,5.37-6.17,10.38-6.17,15.02,0,5.37,2.62,8.06,7.86,8.06,2.54,0,5.45-.85,8.75-2.56,3.29-1.72,6.8-3.86,10.54-6.4,4.19-3,8.49-6.32,12.89-9.98,4.42-3.66,8.35-7,11.79-10,.6-.44,1.2-1,1.8-1.66.59-.68.59-1.32,0-1.92-.46-.44-.99-.51-1.59-.21-.6.29-1.12.66-1.56,1.11-2.99,2.39-6.72,5.49-11.21,9.31s-8.67,7.14-12.56,9.98c-2.41,1.65-5.44,3.56-9.1,5.73-3.66,2.16-6.54,3.25-8.63,3.25-1.79,0-2.69-.75-2.69-2.25,0-1.64,1.2-3.88,3.59-6.73,2.09-2.54,4.71-5.3,7.85-8.29,3.14-3,6.8-6.44,11-10.32,2.54-2.4,5.38-5.2,8.52-8.41,3.14-3.22,5.82-6.51,8.06-9.88,2.25-3.36,3.38-6.54,3.38-9.54,0-2.83-2.1-4.92-6.29-6.27-.74-.3-1.86-.79-3.36-1.46s-2.25-1.3-2.25-1.92c0-1.19,1.05-2.53,3.15-4.02,2.09-1.5,4.34-3,6.73-4.5,1.04-.59,2.68-1.52,4.91-2.79,2.25-1.27,4.32-2.59,6.19-3.94,1.88-1.34,2.81-2.24,2.81-2.68,0-.6-1.12-.9-3.37-.9-1.04,0-2.13.08-3.25.23-1.13.16-1.91.3-2.35.44-1.2.15-2.7.64-4.5,1.48-1.8.82-3.73,1.97-5.82,3.46-2.54,1.94-4.64,4.04-6.29,6.29-1.64,2.24-2.46,4.18-2.46,5.83-2.4,2.83-5.03,5.71-7.87,8.63-2.84,2.91-6.12,6.09-9.86,9.54-3.89,3.74-8.07,7.62-12.56,11.66-4.16,3.73-7.92,7.09-11.3,10.05-3.19,2.64-6.48,5.23-9.87,7.75-4.7,3.52-9.68,7-14.91,10.44-6.88,4.49-14.47,8.25-22.77,11.31-8.31,3.07-16.2,4.76-23.67,5.06-7.47.14-12.97-1.4-16.48-4.62-3.52-3.21-5.27-7.43-5.27-12.67,0-4.92,1.46-10.67,4.37-17.25,2.92-6.58,6.95-13.5,12.11-20.75,5.17-7.26,11.14-14.59,17.94-22,6.8-7.4,14.02-14.38,21.64-20.96,10.78-9.27,21.88-17.42,33.31-24.45,11.45-7.03,22.63-12.64,33.55-16.84,5.23.75,10.13,1.73,14.68,2.94,4.57,1.2,8.87,2.24,12.9,3.13,4.79,1.05,10.21,2.26,16.27,3.6,6.05,1.33,11.4,2,16.04,2,2.24,0,4.14-.63,5.71-1.9,1.57-1.27,2.35-2.88,2.35-4.83,0-4.78-2.8-8.58-8.41-11.42ZM126.29,27.51c-12.71,7.25-24.6,15.6-35.66,25.02-5.98,5.09-11.88,10.88-17.71,17.38-5.84,6.5-11.04,13.34-15.61,20.52-4.55,7.18-8.1,14.4-10.64,21.65-2.54,7.25-3.6,14.24-3.15,20.98-1.04.29-2.16.51-3.35.66-1.2.16-2.33.23-3.38.23-10.01,0-18.01-3.17-24-9.52-5.97-6.36-8.96-15.97-8.96-28.83,0-8.38,1.83-16.68,5.48-24.9,3.67-8.22,8.75-16,15.25-23.33,6.51-7.34,14.03-13.69,22.57-19.06,12.4-7.93,25.06-13.36,38-16.28,12.94-2.91,26.81-4.37,41.62-4.37,13.61,0,26.02.68,37.23,2.02-12.42,4.64-24.98,10.58-37.69,17.83ZM235.08,20.45c-4.49,0-9.57-.74-15.25-2.23-5.68-1.5-10.91-2.85-15.7-4.06-3.15-.89-6.66-1.9-10.55-3.02-3.89-1.13-7.7-2.13-11.43-3.02,5.54-1.95,11.11-3.29,16.7-4.04,5.61-.75,10.74-1.13,15.38-1.13,7.33,0,13.65,1.13,18.96,3.38,5.3,2.24,7.96,5.52,7.96,9.85,0,2.85-2.02,4.27-6.07,4.27Z"/>
    <path d="M254.48,96.28h-16.63v-25.73h16.63v2.79h-13.52v8.65h11.94v2.75h-11.94v8.75h13.52v2.79Z"/>
    <path d="M267.64,96.61c-1.7,0-3.3-.27-4.81-.81-1.5-.55-2.77-1.43-3.79-2.63-1.02-1.21-1.67-2.77-1.96-4.69h3.15c.26,1.38.78,2.45,1.56,3.23.79.77,1.72,1.31,2.79,1.65,1.07.32,2.13.48,3.19.48,1.8,0,3.21-.38,4.23-1.13,1.03-.75,1.54-1.89,1.54-3.42,0-.93-.2-1.69-.6-2.27-.39-.58-.93-1.05-1.6-1.42-.67-.36-1.43-.65-2.27-.88-.83-.22-1.72-.43-2.65-.63-1-.21-1.99-.44-2.98-.71-.97-.28-1.86-.65-2.67-1.13-.79-.47-1.43-1.1-1.92-1.9-.49-.8-.73-1.83-.73-3.08,0-1.47.35-2.73,1.06-3.79.71-1.05,1.69-1.86,2.96-2.44,1.26-.57,2.73-.85,4.42-.85,1.46,0,2.84.25,4.17.75,1.32.5,2.44,1.29,3.38,2.38.93,1.08,1.53,2.52,1.79,4.29h-3c-.24-1.17-.68-2.09-1.33-2.77-.66-.68-1.43-1.17-2.31-1.46-.88-.29-1.79-.44-2.73-.44-1.72,0-3.04.37-3.94,1.1-.91.74-1.35,1.72-1.35,2.96,0,1.03.3,1.83.92,2.42.63.57,1.44,1.01,2.44,1.31,1,.29,2.07.56,3.23.81,1.05.22,2.1.48,3.15.77,1.05.29,2.01.7,2.85,1.23.86.52,1.55,1.21,2.06,2.08.51.88.77,2.02.77,3.44,0,2.28-.77,4.1-2.29,5.48-1.53,1.36-3.77,2.04-6.71,2.04Z"/>
    <path d="M290.33,96.28h-3.1v-22.94h-8.69v-2.79h20.54v2.79h-8.75v22.94Z"/>
    <path d="M311.21,96.61c-3.27,0-5.68-.82-7.23-2.48-1.54-1.65-2.31-3.9-2.31-6.75v-16.83h3.1v16.83c0,2,.51,3.58,1.52,4.73,1.03,1.16,2.67,1.73,4.92,1.73s3.88-.57,4.9-1.73c1.03-1.15,1.54-2.73,1.54-4.73v-16.83h3.1v16.83c0,2.85-.78,5.1-2.33,6.75-1.54,1.66-3.95,2.48-7.21,2.48Z"/>
    <path d="M332.62,96.28h-7.04v-25.73h7.08c4.29,0,7.57,1.13,9.83,3.38,2.26,2.25,3.4,5.44,3.4,9.56s-1.14,7.22-3.42,9.46c-2.27,2.22-5.55,3.33-9.85,3.33ZM328.68,73.34v20.15h3.92c1.34,0,2.63-.14,3.85-.42,1.22-.29,2.3-.8,3.25-1.52.94-.73,1.69-1.76,2.25-3.06.55-1.3.83-2.97.83-5,0-2.51-.44-4.51-1.31-5.98-.86-1.47-2.06-2.53-3.58-3.19-1.52-.65-3.27-.98-5.27-.98h-3.94Z"/>
    <path d="M353.06,96.28h-3.1v-25.73h3.1v25.73Z"/>
    <path d="M369.08,96.61c-2.03,0-3.79-.35-5.29-1.06-1.49-.71-2.72-1.68-3.71-2.92-.99-1.23-1.72-2.65-2.21-4.23-.49-1.58-.73-3.25-.73-5s.24-3.44.73-5.02c.48-1.58,1.22-2.98,2.21-4.21.98-1.22,2.22-2.19,3.71-2.9,1.5-.71,3.26-1.06,5.29-1.06s3.81.35,5.31,1.06c1.51.71,2.76,1.68,3.75,2.9,1,1.22,1.73,2.63,2.21,4.21.48,1.58.73,3.26.73,5.02s-.24,3.42-.73,5c-.47,1.58-1.21,2.99-2.21,4.23-.99,1.24-2.24,2.21-3.75,2.92-1.5.71-3.27,1.06-5.31,1.06ZM369.08,93.82c1.93,0,3.55-.45,4.88-1.35,1.33-.9,2.33-2.14,3-3.71.68-1.57,1.02-3.35,1.02-5.35s-.34-3.8-1.02-5.35c-.67-1.57-1.67-2.8-3-3.69-1.32-.9-2.95-1.35-4.88-1.35s-3.49.45-4.81,1.35c-1.31.89-2.31,2.12-3,3.69-.68,1.56-1.02,3.34-1.02,5.35s.34,3.79,1.02,5.35c.69,1.57,1.69,2.81,3,3.71,1.32.91,2.92,1.35,4.81,1.35Z"/>
    <path d="M248.75,133.59c-2.03,0-3.79-.35-5.29-1.06-1.49-.71-2.72-1.68-3.71-2.92-.97-1.23-1.7-2.65-2.17-4.23-.47-1.58-.71-3.25-.71-5s.23-3.43.71-5c.47-1.57,1.19-2.97,2.17-4.21.98-1.23,2.22-2.21,3.71-2.92,1.5-.71,3.26-1.06,5.29-1.06,1.9,0,3.57.31,5.02.94,1.46.63,2.64,1.5,3.54,2.63.9,1.13,1.48,2.42,1.73,3.88h-3.38c-.32-1.43-1.1-2.57-2.33-3.42-1.24-.84-2.79-1.27-4.65-1.27s-3.52.45-4.81,1.35c-1.29.91-2.27,2.14-2.92,3.71-.66,1.57-.98,3.36-.98,5.38s.32,3.79.98,5.38c.65,1.58,1.63,2.83,2.92,3.73,1.29.89,2.9,1.33,4.81,1.33s3.41-.44,4.65-1.33c1.23-.9,2.01-2.24,2.33-4.02h3.38c-.42,2.5-1.52,4.48-3.31,5.94-1.78,1.46-4.1,2.19-6.98,2.19Z"/>
    <path d="M275.9,121.82l4.96,11.44h-3.42l-4.54-10.85h-7.02v10.85h-3.1v-25.73h9.58c2.47,0,4.44.61,5.92,1.83,1.48,1.21,2.23,3.05,2.23,5.52,0,1.72-.41,3.18-1.21,4.38-.81,1.2-1.94,2.05-3.4,2.56ZM265.88,119.63h6.06c1.78,0,3.14-.4,4.08-1.19.94-.8,1.42-1.96,1.42-3.46s-.49-2.63-1.46-3.44c-.96-.82-2.31-1.23-4.04-1.23h-6.06v9.31Z"/>
    <path d="M301.36,133.25h-16.63v-25.73h16.63v2.79h-13.52v8.65h11.94v2.75h-11.94v8.75h13.52v2.79Z"/>
    <path d="M306.14,133.25h-3.13l9.48-25.73h3.5l9.48,25.73h-3.15l-2.25-6.31h-11.67l-2.27,6.31ZM314.25,110.69l-4.79,13.48h9.58l-4.79-13.48Z"/>
    <path d="M337.91,133.25h-3.1v-22.94h-8.69v-2.79h20.54v2.79h-8.75v22.94Z"/>
    <path d="M352.59,133.25h-3.1v-25.73h3.1v25.73Z"/>
    <path d="M368.44,133.25h-3.5l-9.48-25.73h3.13l8.1,22.56,8.08-22.56h3.15l-9.48,25.73Z"/>
    <path d="M391.71,133.59c-2.03,0-3.79-.35-5.29-1.06-1.49-.71-2.72-1.68-3.71-2.92-.99-1.23-1.72-2.65-2.21-4.23-.49-1.58-.73-3.25-.73-5s.24-3.44.73-5.02c.48-1.58,1.22-2.98,2.21-4.21.98-1.22,2.22-2.19,3.71-2.9,1.5-.71,3.26-1.06,5.29-1.06s3.81.35,5.31,1.06c1.51.71,2.76,1.68,3.75,2.9,1,1.22,1.73,2.63,2.21,4.21.48,1.58.73,3.26.73,5.02s-.24,3.42-.73,5c-.47,1.58-1.21,2.99-2.21,4.23-.99,1.24-2.24,2.21-3.75,2.92-1.5.71-3.27,1.06-5.31,1.06ZM391.71,130.8c1.93,0,3.55-.45,4.88-1.35,1.33-.9,2.33-2.14,3-3.71.68-1.57,1.02-3.35,1.02-5.35s-.34-3.8-1.02-5.35c-.67-1.57-1.67-2.8-3-3.69-1.32-.9-2.95-1.35-4.88-1.35s-3.49.45-4.81,1.35c-1.31.89-2.31,2.12-3,3.69-.68,1.56-1.02,3.34-1.02,5.35s.34,3.79,1.02,5.35c.69,1.57,1.69,2.81,3,3.71,1.32.91,2.92,1.35,4.81,1.35Z"/>
  </g>
</svg>